<?xml version="1.0" encoding="utf-8"?>
<!-- Svg Vector Icons : http://www.onlinewebfonts.com/icon -->
<!DOCTYPE svg PUBLIC "-//W3C//DTD SVG 1.1//EN" "http://www.w3.org/Graphics/SVG/1.1/DTD/svg11.dtd">
<svg version="1.1" xmlns="http://www.w3.org/2000/svg" xmlns:xlink="http://www.w3.org/1999/xlink" x="0px" y="0px" viewBox="0 0 1000 1000" enable-background="new 0 0 1000 1000" xml:space="preserve">
<metadata> Svg Vector Icons : http://www.onlinewebfonts.com/icon </metadata>
<g><path d="M622.6,469.5c0,16.9-13.7,30.6-30.6,30.6c-16.9,0-30.6-13.7-30.6-30.6c0-16.9,13.7-30.6,30.6-30.6C608.9,438.9,622.6,452.6,622.6,469.5z M867.3,40.6v735.2c0,16.9-13.7,30.6-30.6,30.6H683.6v152.9c0,16.9-13.7,30.6-21,30.6H172.9c-26.5,0-40.2-13.7-40.2-30.6V224.8c0-16.9,13.7-30.6,30.6-30.6h153.3V40.6c0-16.9,13.7-30.6,30.6-30.6h489.5C853.6,10,867.3,23.7,867.3,40.6z M560.8,632.8c0-5.8-4.7-10.6-10.6-10.6H438.6l122.2,123.1V632.8z M622.3,806.5h-58.1c-1.1,0.1-2.1,0.2-3.2,0.2c-8.1,0-15.5-3.2-21-8.3l-0.1,0.2L328.4,585.1c-7.2-5.6-11.8-14.3-11.8-24.1V255.5H204.5c-5.8,0-10.6,4.7-10.6,10.6v652.5c0,5.8,4.7,10.6,10.6,10.6h407.3c5.8,0,10.6-4.7,10.6-10.6V806.5z M806.1,81.8c0-5.8-4.7-10.6-10.6-10.6H388.4c-5.8,0-10.6,4.7-10.6,10.6V561h213.5c16.9,0,30.6,13.7,30.6,30.6v154h173.5c5.8,0,10.6-4.7,10.6-10.6V81.8z M592,378.8c16.9,0,30.6-13.7,30.6-30.6V164.7c0-16.9-13.7-30.6-30.6-30.6s-30.6,13.7-30.6,30.6v183.5C561.4,365.1,575.1,378.8,592,378.8z"/></g>
</svg>